<svg xmlns="http://www.w3.org/2000/svg" viewBox="0 0 64 64">
  <rect width="64" height="64" rx="18" fill="#f5efe5"/>
  <path d="M31 52c-1.3 0-2.4-1.1-2.4-2.4V35.7c0-9.9 5.2-18.3 14.2-22.9 1.1-.5 2.3-.1 2.9 1 .5 1.1.1 2.4-1 2.9-7.5 3.7-11.8 10.6-11.8 19v13.9c0 1.3-1.1 2.4-2.4 2.4Z" fill="#4f8a59"/>
  <path d="M31.4 28.7c-7.5-1-13-5.9-15.1-13.4-.3-1.2.3-2.4 1.6-2.8 7.8-2.2 15.3-.1 20.4 5.9.8.9.7 2.3-.2 3.1-.9.8-2.3.7-3.1-.2-3.7-4.3-8.7-6.1-14.4-5.1 1.9 5.2 5.8 8.4 11.4 9.1 1.2.2 2.1 1.3 1.9 2.5-.2 1.1-1.2 1.9-2.4 1.9Z" fill="#6baf72"/>
  <path d="M32.7 31c-1.1 0-2-.8-2.2-1.9-.2-1.2.7-2.3 1.9-2.5 5.6-.8 9.6-3.9 11.5-9.1-5.7-1-10.8.8-14.5 5.1-.8.9-2.2 1-3.1.2-.9-.8-1-2.2-.2-3.1 5.1-6 12.6-8.2 20.4-5.9 1.2.4 1.9 1.6 1.6 2.8-2.1 7.5-7.6 12.4-15.1 13.4h-.3Z" fill="#8bc28f"/>
  <circle cx="31.1" cy="51.2" r="3.2" fill="#b88656"/>
</svg>
